# xmcd CD database file
#
# Track frame offsets:
#	150
#	29534
#	46411
#	75870
#	100188
#	122363
#	139113
#	166090
#	185888
#	209665
#	249198
#	272192
#	286111
#
# Disc length: 3965 seconds
#
# Revision: 0
# Processed by: cddbd v1.5PL3 Copyright (c) Steve Scherf et al.
# Submitted via: CDex 1.51
#
DISCID=af0f7b0d
DTITLE=Luis Salinas - Ahí Va
DYEAR=2004
DGENRE=Jazz
TTITLE0=Dulce
TTITLE1=Funky en SI menor
TTITLE2=Allá Lejos
TTITLE3=Ahí Va
TTITLE4=Bolero
TTITLE5=Salsita
TTITLE6=La Estrella del Fin
TTITLE7=Amanece
TTITLE8=Noche
TTITLE9=Candombe
TTITLE10=Contigo en la Distancia
TTITLE11=Latin BeeBoop
TTITLE12=RTM Blues
EXTD=YEAR: 2004
EXTT0=
EXTT1=
EXTT2=
EXTT3=
EXTT4=
EXTT5=
EXTT6=
EXTT7=
EXTT8=
EXTT9=
EXTT10=
EXTT11=
EXTT12=
PLAYORDER=
